<svg xmlns="http://www.w3.org/2000/svg" viewBox="0 0 1230 3453" width="1230" height="3453" role="img" aria-label="Flowchart of the Döner Street Store Manager hiring and onboarding process">
  <title>Flowchart of the Döner Street Store Manager hiring and onboarding process</title>
  <rect x="0" y="0" width="1230" height="3453" fill="#E8D1A7" opacity="0.35"/>
  <defs>
    <marker id="arrow" viewBox="0 0 10 10" refX="9" refY="5" markerWidth="8" markerHeight="8" orient="auto-start-reverse">
      <path d="M0,0 L10,5 L0,10 z" fill="#84592B"/>
    </marker>
    <marker id="arrow-acento" viewBox="0 0 10 10" refX="9" refY="5" markerWidth="8" markerHeight="8" orient="auto-start-reverse">
      <path d="M0,0 L10,5 L0,10 z" fill="#743014"/>
    </marker>
  </defs>
<line x1="450.0" y1="100" x2="450.0" y2="140" stroke="#84592B" stroke-width="2.5" marker-end="url(#arrow)"/>
<line x1="450.0" y1="280" x2="450.0" y2="320" stroke="#84592B" stroke-width="2.5" marker-end="url(#arrow)"/>
<line x1="450.0" y1="553" x2="450.0" y2="593" stroke="#84592B" stroke-width="2.5" marker-end="url(#arrow)"/>
<line x1="450.0" y1="786" x2="450.0" y2="826" stroke="#84592B" stroke-width="2.5" marker-end="url(#arrow)"/>
<line x1="450.0" y1="890" x2="450.0" y2="930" stroke="#84592B" stroke-width="2.5" marker-end="url(#arrow)"/>
<line x1="450.0" y1="1105" x2="450.0" y2="1145" stroke="#84592B" stroke-width="2.5" marker-end="url(#arrow)"/>
<line x1="450.0" y1="1225" x2="450.0" y2="1265" stroke="#84592B" stroke-width="2.5" marker-end="url(#arrow)"/>
<line x1="450.0" y1="1385" x2="450.0" y2="1425" stroke="#84592B" stroke-width="2.5" marker-end="url(#arrow)"/>
<line x1="450.0" y1="1555" x2="450.0" y2="1595" stroke="#84592B" stroke-width="2.5" marker-end="url(#arrow)"/>
<line x1="450.0" y1="1715" x2="450.0" y2="1755" stroke="#84592B" stroke-width="2.5" marker-end="url(#arrow)"/>
<line x1="450.0" y1="1855" x2="450.0" y2="1895" stroke="#84592B" stroke-width="2.5" marker-end="url(#arrow)"/>
<line x1="450.0" y1="1959" x2="450.0" y2="1999" stroke="#84592B" stroke-width="2.5" marker-end="url(#arrow)"/>
<line x1="450.0" y1="2119" x2="450.0" y2="2159" stroke="#84592B" stroke-width="2.5" marker-end="url(#arrow)"/>
<line x1="450.0" y1="2289" x2="450.0" y2="2329" stroke="#84592B" stroke-width="2.5" marker-end="url(#arrow)"/>
<line x1="450.0" y1="2393" x2="450.0" y2="2433" stroke="#84592B" stroke-width="2.5" marker-end="url(#arrow)"/>
<line x1="450.0" y1="2553" x2="450.0" y2="2593" stroke="#84592B" stroke-width="2.5" marker-end="url(#arrow)"/>
<line x1="450.0" y1="2723" x2="450.0" y2="2763" stroke="#84592B" stroke-width="2.5" marker-end="url(#arrow)"/>
<line x1="450.0" y1="2843" x2="450.0" y2="2883" stroke="#84592B" stroke-width="2.5" marker-end="url(#arrow)"/>
<line x1="450.0" y1="2983" x2="450.0" y2="3023" stroke="#84592B" stroke-width="2.5" marker-end="url(#arrow)"/>
<line x1="450.0" y1="3143" x2="450.0" y2="3183" stroke="#84592B" stroke-width="2.5" marker-end="url(#arrow)"/>
<line x1="450.0" y1="3283" x2="450.0" y2="3323" stroke="#84592B" stroke-width="2.5" marker-end="url(#arrow)"/>
<rect x="220" y="40" width="460" height="60" rx="30.0" ry="30.0" fill="#84592B" stroke="#442D1C" stroke-width="2"/>
<text x="450.0" y="76.0" text-anchor="middle" font-family="'Raleway', Arial, sans-serif" font-size="18" font-weight="700" fill="#FFFDF8">Vacancy Trigger Occurs</text>
<rect x="220" y="140" width="460" height="140" rx="12" ry="12" fill="#FFFDF8" stroke="#84592B" stroke-width="2"/>
<rect x="220" y="140" width="7" height="140" rx="3" ry="3" fill="#84592B"/>
<text x="242" y="167" font-family="'Raleway', Arial, sans-serif" font-size="16.5" font-weight="700" fill="#6B4622">1. Confirm Budget &amp; Need</text>
<text x="242" y="187" font-family="'Raleway', Arial, sans-serif" font-size="14" fill="#442D1C">Resignation, growth, or promotion triggers</text>
<text x="242" y="207" font-family="'Raleway', Arial, sans-serif" font-size="14" fill="#442D1C">the vacancy. Owner confirms the</text>
<text x="242" y="227" font-family="'Raleway', Arial, sans-serif" font-size="14" fill="#442D1C">$3,500,000/mo role (§3.3.2) is still</text>
<text x="242" y="247" font-family="'Raleway', Arial, sans-serif" font-size="14" fill="#442D1C">budgeted before opening it.</text>
<rect x="220" y="320" width="460" height="233" rx="12" ry="12" fill="#FFFDF8" stroke="#84592B" stroke-width="2"/>
<rect x="220" y="320" width="7" height="233" rx="3" ry="3" fill="#84592B"/>
<text x="242" y="347" font-family="'Raleway', Arial, sans-serif" font-size="16.5" font-weight="700" fill="#6B4622">2. Define Screening Filters</text>
<text x="242" y="367" font-family="'Raleway', Arial, sans-serif" font-size="14" fill="#442D1C">Fix the pass/fail bar before posting</text>
<text x="242" y="387" font-family="'Raleway', Arial, sans-serif" font-size="14" fill="#442D1C">anything:</text>
<text x="242" y="406" font-family="'Raleway', Arial, sans-serif" font-size="13.5" fill="#442D1C">&#8226; 2+ years restaurant/retail supervisory</text>
<text x="254" y="425" font-family="'Raleway', Arial, sans-serif" font-size="13.5" fill="#442D1C">experience</text>
<text x="242" y="444" font-family="'Raleway', Arial, sans-serif" font-size="13.5" fill="#442D1C">&#8226; Full availability for rotating shifts,</text>
<text x="254" y="463" font-family="'Raleway', Arial, sans-serif" font-size="13.5" fill="#442D1C">incl. weekends</text>
<text x="242" y="482" font-family="'Raleway', Arial, sans-serif" font-size="13.5" fill="#442D1C">&#8226; Basic P&amp;L / inventory literacy</text>
<text x="242" y="501" font-family="'Raleway', Arial, sans-serif" font-size="13.5" fill="#442D1C">&#8226; Willing to complete a background &amp;</text>
<text x="254" y="520" font-family="'Raleway', Arial, sans-serif" font-size="13.5" fill="#442D1C">reference check</text>
<rect x="220" y="593" width="460" height="193" rx="12" ry="12" fill="#FFFDF8" stroke="#84592B" stroke-width="2"/>
<rect x="220" y="593" width="7" height="193" rx="3" ry="3" fill="#84592B"/>
<text x="242" y="620" font-family="'Raleway', Arial, sans-serif" font-size="16.5" font-weight="700" fill="#6B4622">3. Post the Vacancy</text>
<text x="242" y="639" font-family="'Raleway', Arial, sans-serif" font-size="13.5" fill="#442D1C">&#8226; Computrabajo + LinkedIn (paid listings)</text>
<text x="242" y="658" font-family="'Raleway', Arial, sans-serif" font-size="13.5" fill="#442D1C">&#8226; Bogotá hospitality Facebook/Instagram</text>
<text x="254" y="677" font-family="'Raleway', Arial, sans-serif" font-size="13.5" fill="#442D1C">groups</text>
<text x="242" y="696" font-family="'Raleway', Arial, sans-serif" font-size="13.5" fill="#442D1C">&#8226; Internal referrals (referral bonus</text>
<text x="254" y="715" font-family="'Raleway', Arial, sans-serif" font-size="13.5" fill="#442D1C">applies)</text>
<text x="242" y="734" font-family="'Raleway', Arial, sans-serif" font-size="13.5" fill="#442D1C">&#8226; Open 10 business days or until 15</text>
<text x="254" y="753" font-family="'Raleway', Arial, sans-serif" font-size="13.5" fill="#442D1C">qualified apps</text>
<rect x="220" y="826" width="460" height="64" rx="12" ry="12" fill="#FFFDF8" stroke="#84592B" stroke-width="2"/>
<rect x="220" y="826" width="7" height="64" rx="3" ry="3" fill="#84592B"/>
<text x="242" y="853" font-family="'Raleway', Arial, sans-serif" font-size="16.5" font-weight="700" fill="#6B4622">4. Receive Applications</text>
<rect x="220" y="930" width="460" height="175" rx="12" ry="12" fill="#FFFDF8" stroke="#84592B" stroke-width="2"/>
<rect x="220" y="930" width="7" height="175" rx="3" ry="3" fill="#84592B"/>
<text x="242" y="957" font-family="'Raleway', Arial, sans-serif" font-size="16.5" font-weight="700" fill="#6B4622">5. Score CVs Against the Rubric</text>
<text x="242" y="977" font-family="'Raleway', Arial, sans-serif" font-size="14" fill="#442D1C">Minimum passing score to advance: 70/100.</text>
<text x="242" y="996" font-family="'Raleway', Arial, sans-serif" font-size="13.5" fill="#442D1C">&#8226; Experience &amp; track record — 40 pts</text>
<text x="242" y="1015" font-family="'Raleway', Arial, sans-serif" font-size="13.5" fill="#442D1C">&#8226; Shift availability — 20 pts</text>
<text x="242" y="1034" font-family="'Raleway', Arial, sans-serif" font-size="13.5" fill="#442D1C">&#8226; P&amp;L / inventory literacy — 20 pts</text>
<text x="242" y="1053" font-family="'Raleway', Arial, sans-serif" font-size="13.5" fill="#442D1C">&#8226; References &amp; background flag — 20</text>
<text x="254" y="1072" font-family="'Raleway', Arial, sans-serif" font-size="13.5" fill="#442D1C">pts</text>
<rect x="220" y="1145" width="460" height="80" rx="12" ry="12" fill="#FFFDF8" stroke="#84592B" stroke-width="2"/>
<rect x="220" y="1145" width="7" height="80" rx="3" ry="3" fill="#84592B"/>
<text x="242" y="1172" font-family="'Raleway', Arial, sans-serif" font-size="16.5" font-weight="700" fill="#6B4622">6. Shortlist Qualified Candidates</text>
<text x="242" y="1192" font-family="'Raleway', Arial, sans-serif" font-size="14" fill="#442D1C">Target: 5–8 candidates scoring 70+.</text>
<rect x="220" y="1265" width="460" height="120" rx="12" ry="12" fill="#FFFDF8" stroke="#84592B" stroke-width="2"/>
<rect x="220" y="1265" width="7" height="120" rx="3" ry="3" fill="#84592B"/>
<text x="242" y="1292" font-family="'Raleway', Arial, sans-serif" font-size="16.5" font-weight="700" fill="#6B4622">7. First Interview</text>
<text x="242" y="1312" font-family="'Raleway', Arial, sans-serif" font-size="14" fill="#442D1C">30–40 min screen with the owner:</text>
<text x="242" y="1332" font-family="'Raleway', Arial, sans-serif" font-size="14" fill="#442D1C">experience, availability, salary</text>
<text x="242" y="1352" font-family="'Raleway', Arial, sans-serif" font-size="14" fill="#442D1C">expectations.</text>
<polygon points="450.0,1425 680,1490.0 450.0,1555 220,1490.0" fill="#F6EBD6" stroke="#743014" stroke-width="2.5"/>
<text x="450.0" y="1496.0" text-anchor="middle" font-family="'Raleway', Arial, sans-serif" font-size="16.5" font-weight="700" fill="#743014">Meets Requirements?</text>
<rect x="220" y="1595" width="460" height="120" rx="12" ry="12" fill="#FFFDF8" stroke="#84592B" stroke-width="2"/>
<rect x="220" y="1595" width="7" height="120" rx="3" ry="3" fill="#84592B"/>
<text x="242" y="1622" font-family="'Raleway', Arial, sans-serif" font-size="16.5" font-weight="700" fill="#6B4622">8. Practical Assessment</text>
<text x="242" y="1642" font-family="'Raleway', Arial, sans-serif" font-size="14" fill="#442D1C">Given a sample high-season week and</text>
<text x="242" y="1662" font-family="'Raleway', Arial, sans-serif" font-size="14" fill="#442D1C">P&amp;L snapshot (§3.5.1), candidate plans</text>
<text x="242" y="1682" font-family="'Raleway', Arial, sans-serif" font-size="14" fill="#442D1C">staffing and cost cuts.</text>
<rect x="220" y="1755" width="460" height="100" rx="12" ry="12" fill="#FFFDF8" stroke="#84592B" stroke-width="2"/>
<rect x="220" y="1755" width="7" height="100" rx="3" ry="3" fill="#84592B"/>
<text x="242" y="1782" font-family="'Raleway', Arial, sans-serif" font-size="16.5" font-weight="700" fill="#6B4622">9. Final Interview</text>
<text x="242" y="1802" font-family="'Raleway', Arial, sans-serif" font-size="14" fill="#442D1C">Deeper conversation with the owner on</text>
<text x="242" y="1822" font-family="'Raleway', Arial, sans-serif" font-size="14" fill="#442D1C">culture fit and long-term commitment.</text>
<rect x="220" y="1895" width="460" height="64" rx="12" ry="12" fill="#FFFDF8" stroke="#84592B" stroke-width="2"/>
<rect x="220" y="1895" width="7" height="64" rx="3" ry="3" fill="#84592B"/>
<text x="242" y="1922" font-family="'Raleway', Arial, sans-serif" font-size="16.5" font-weight="700" fill="#6B4622">10. Select the Best Candidate</text>
<rect x="220" y="1999" width="460" height="120" rx="12" ry="12" fill="#FFFDF8" stroke="#84592B" stroke-width="2"/>
<rect x="220" y="1999" width="7" height="120" rx="3" ry="3" fill="#84592B"/>
<text x="242" y="2026" font-family="'Raleway', Arial, sans-serif" font-size="16.5" font-weight="700" fill="#6B4622">11. Make Job Offer</text>
<text x="242" y="2046" font-family="'Raleway', Arial, sans-serif" font-size="14" fill="#442D1C">$3,500,000/mo, benefits, and proposed</text>
<text x="242" y="2066" font-family="'Raleway', Arial, sans-serif" font-size="14" fill="#442D1C">start date, conditional on the background</text>
<text x="242" y="2086" font-family="'Raleway', Arial, sans-serif" font-size="14" fill="#442D1C">check below.</text>
<polygon points="450.0,2159 680,2224.0 450.0,2289 220,2224.0" fill="#F6EBD6" stroke="#743014" stroke-width="2.5"/>
<text x="450.0" y="2230.0" text-anchor="middle" font-family="'Raleway', Arial, sans-serif" font-size="16.5" font-weight="700" fill="#743014">Candidate Accepts?</text>
<rect x="220" y="2329" width="460" height="64" rx="12" ry="12" fill="#FFFDF8" stroke="#84592B" stroke-width="2"/>
<rect x="220" y="2329" width="7" height="64" rx="3" ry="3" fill="#84592B"/>
<text x="242" y="2356" font-family="'Raleway', Arial, sans-serif" font-size="16.5" font-weight="700" fill="#6B4622">12. Sign Conditional Employment Contract</text>
<rect x="220" y="2433" width="460" height="120" rx="12" ry="12" fill="#FFFDF8" stroke="#84592B" stroke-width="2"/>
<rect x="220" y="2433" width="7" height="120" rx="3" ry="3" fill="#84592B"/>
<text x="242" y="2460" font-family="'Raleway', Arial, sans-serif" font-size="16.5" font-weight="700" fill="#6B4622">13. Complete Hiring Documentation</text>
<text x="242" y="2480" font-family="'Raleway', Arial, sans-serif" font-size="14" fill="#442D1C">Payroll registration; formal background-</text>
<text x="242" y="2500" font-family="'Raleway', Arial, sans-serif" font-size="14" fill="#442D1C">check submission; reference verification</text>
<text x="242" y="2520" font-family="'Raleway', Arial, sans-serif" font-size="14" fill="#442D1C">on record.</text>
<polygon points="450.0,2593 680,2658.0 450.0,2723 220,2658.0" fill="#F6EBD6" stroke="#743014" stroke-width="2.5"/>
<text x="450.0" y="2664.0" text-anchor="middle" font-family="'Raleway', Arial, sans-serif" font-size="16.5" font-weight="700" fill="#743014">Background Check Clear?</text>
<rect x="220" y="2763" width="460" height="80" rx="12" ry="12" fill="#FFFDF8" stroke="#84592B" stroke-width="2"/>
<rect x="220" y="2763" width="7" height="80" rx="3" ry="3" fill="#84592B"/>
<text x="242" y="2790" font-family="'Raleway', Arial, sans-serif" font-size="16.5" font-weight="700" fill="#6B4622">14. Officially Hired</text>
<text x="242" y="2810" font-family="'Raleway', Arial, sans-serif" font-size="14" fill="#442D1C">Contract becomes unconditional.</text>
<rect x="220" y="2883" width="460" height="100" rx="12" ry="12" fill="#FFFDF8" stroke="#84592B" stroke-width="2"/>
<rect x="220" y="2883" width="7" height="100" rx="3" ry="3" fill="#84592B"/>
<text x="242" y="2910" font-family="'Raleway', Arial, sans-serif" font-size="16.5" font-weight="700" fill="#6B4622">15. Day 1 Orientation</text>
<text x="242" y="2930" font-family="'Raleway', Arial, sans-serif" font-size="14" fill="#442D1C">Policies, the POS/MIS systems (§3.8), and</text>
<text x="242" y="2950" font-family="'Raleway', Arial, sans-serif" font-size="14" fill="#442D1C">the warranty claim process (§3.4.3).</text>
<rect x="220" y="3023" width="460" height="120" rx="12" ry="12" fill="#FFFDF8" stroke="#84592B" stroke-width="2"/>
<rect x="220" y="3023" width="7" height="120" rx="3" ry="3" fill="#84592B"/>
<text x="242" y="3050" font-family="'Raleway', Arial, sans-serif" font-size="16.5" font-weight="700" fill="#6B4622">16. Week 1 Shadow Shifts</text>
<text x="242" y="3070" font-family="'Raleway', Arial, sans-serif" font-size="14" fill="#442D1C">Shadows the outgoing Store Manager or a</text>
<text x="242" y="3090" font-family="'Raleway', Arial, sans-serif" font-size="14" fill="#442D1C">senior Associate across a high- and a low-</text>
<text x="242" y="3110" font-family="'Raleway', Arial, sans-serif" font-size="14" fill="#442D1C">season shift.</text>
<rect x="220" y="3183" width="460" height="100" rx="12" ry="12" fill="#FFFDF8" stroke="#84592B" stroke-width="2"/>
<rect x="220" y="3183" width="7" height="100" rx="3" ry="3" fill="#84592B"/>
<text x="242" y="3210" font-family="'Raleway', Arial, sans-serif" font-size="16.5" font-weight="700" fill="#6B4622">17. 30/60/90-Day Performance Review</text>
<text x="242" y="3230" font-family="'Raleway', Arial, sans-serif" font-size="14" fill="#442D1C">Checked against the sales-growth KPIs</text>
<text x="242" y="3250" font-family="'Raleway', Arial, sans-serif" font-size="14" fill="#442D1C">already defined in §3.3.5 Controlling.</text>
<rect x="220" y="3323" width="460" height="60" rx="30.0" ry="30.0" fill="#743014" stroke="#442D1C" stroke-width="2"/>
<text x="450.0" y="3359.0" text-anchor="middle" font-family="'Raleway', Arial, sans-serif" font-size="18" font-weight="700" fill="#FFFDF8">Fully Onboarded — Independent Operation Begins</text>
<text x="490.0" y="1581" text-anchor="middle" font-family="'Raleway', Arial, sans-serif" font-size="15" font-weight="700" fill="#2E7D4F">Yes</text>
<text x="490.0" y="2315" text-anchor="middle" font-family="'Raleway', Arial, sans-serif" font-size="15" font-weight="700" fill="#2E7D4F">Yes</text>
<text x="490.0" y="2749" text-anchor="middle" font-family="'Raleway', Arial, sans-serif" font-size="15" font-weight="700" fill="#2E7D4F">Yes</text>
<rect x="790" y="1440.0" width="330" height="100" rx="12" ry="12" fill="#E8D1A7" stroke="#84592B" stroke-width="2"/>
<rect x="790" y="1440.0" width="7" height="100" rx="3" ry="3" fill="#743014"/>
<text x="812" y="1467.0" font-family="'Raleway', Arial, sans-serif" font-size="16.5" font-weight="700" fill="#6B4622">No: Reject &amp; Notify</text>
<text x="812" y="1487.0" font-family="'Raleway', Arial, sans-serif" font-size="14" fill="#442D1C">Candidate is notified; return to Shortlist</text>
<text x="812" y="1507.0" font-family="'Raleway', Arial, sans-serif" font-size="14" fill="#442D1C">for the next candidate.</text>
<path d="M680,1490.0 L790,1490.0" fill="none" stroke="#743014" stroke-width="2.5" marker-end="url(#arrow-acento)"/>
<text x="735.0" y="1480.0" text-anchor="middle" font-family="'Raleway', Arial, sans-serif" font-size="15" font-weight="700" fill="#B3261E">No</text>
<path d="M1120,1490.0 L1160,1490.0 L1160,1185.0 L680,1185.0" fill="none" stroke="#743014" stroke-width="2.5" stroke-dasharray="7,5" marker-end="url(#arrow-acento)"/>
<rect x="790" y="2174.0" width="330" height="100" rx="12" ry="12" fill="#E8D1A7" stroke="#84592B" stroke-width="2"/>
<rect x="790" y="2174.0" width="7" height="100" rx="3" ry="3" fill="#743014"/>
<text x="812" y="2201.0" font-family="'Raleway', Arial, sans-serif" font-size="16.5" font-weight="700" fill="#6B4622">No: Contact Next Finalist</text>
<text x="812" y="2221.0" font-family="'Raleway', Arial, sans-serif" font-size="14" fill="#442D1C">Offer the role to the next finalist on the</text>
<text x="812" y="2241.0" font-family="'Raleway', Arial, sans-serif" font-size="14" fill="#442D1C">shortlist; return to Make Job Offer.</text>
<path d="M680,2224.0 L790,2224.0" fill="none" stroke="#743014" stroke-width="2.5" marker-end="url(#arrow-acento)"/>
<text x="735.0" y="2214.0" text-anchor="middle" font-family="'Raleway', Arial, sans-serif" font-size="15" font-weight="700" fill="#B3261E">No</text>
<path d="M1120,2224.0 L1160,2224.0 L1160,2059.0 L680,2059.0" fill="none" stroke="#743014" stroke-width="2.5" stroke-dasharray="7,5" marker-end="url(#arrow-acento)"/>
<rect x="790" y="2608.0" width="330" height="100" rx="12" ry="12" fill="#E8D1A7" stroke="#84592B" stroke-width="2"/>
<rect x="790" y="2608.0" width="7" height="100" rx="3" ry="3" fill="#743014"/>
<text x="812" y="2635.0" font-family="'Raleway', Arial, sans-serif" font-size="16.5" font-weight="700" fill="#6B4622">No: Rescind Offer, Reopen Search</text>
<text x="812" y="2655.0" font-family="'Raleway', Arial, sans-serif" font-size="14" fill="#442D1C">Contract is voided; return to Shortlist to</text>
<text x="812" y="2675.0" font-family="'Raleway', Arial, sans-serif" font-size="14" fill="#442D1C">consider the next finalist.</text>
<path d="M680,2658.0 L790,2658.0" fill="none" stroke="#743014" stroke-width="2.5" marker-end="url(#arrow-acento)"/>
<text x="735.0" y="2648.0" text-anchor="middle" font-family="'Raleway', Arial, sans-serif" font-size="15" font-weight="700" fill="#B3261E">No</text>
<path d="M1120,2658.0 L1200,2658.0 L1200,1185.0 L680,1185.0" fill="none" stroke="#743014" stroke-width="2.5" stroke-dasharray="7,5" marker-end="url(#arrow-acento)"/>
</svg>